<svg viewBox="0 0 24 24" fill="none" xmlns="http://www.w3.org/2000/svg">
<path d="M9.05839 19.1839C9.33323 21.9306 10.5458 24 12 24C13.4543 24 14.6669 21.9304 14.9417 19.1834C17.2713 21.4758 20.0757 22.3952 21.2356 21.2353C22.3955 20.0754 21.4762 17.2712 19.184 14.9416C21.9307 14.6667 24 13.4542 24 12C24 10.5458 21.9305 9.33319 19.1837 9.05837C21.4759 6.72882 22.3952 3.92459 21.2353 2.76471C20.0754 1.60482 17.2712 2.52415 14.9416 4.81633C14.6668 2.06951 13.4543 0 12 0C10.5457 0 9.33312 2.06959 9.05835 4.8165C6.72876 2.5242 3.92441 1.6048 2.76449 2.76472C1.60461 3.9246 2.52393 6.72884 4.81609 9.05839C2.06939 9.33323 0 10.5458 0 12C0 13.4543 2.0696 14.6669 4.8165 14.9417C2.52437 17.2712 1.60507 20.0754 2.76495 21.2353C3.92479 22.3951 6.72888 21.4759 9.05839 19.1839Z" fill="#ffffff"/>
</svg>
