<svg width="16" height="16" viewBox="0 0 16 16" fill="none" xmlns="http://www.w3.org/2000/svg">
<path d="M6.28747 12.1346C6.63781 14.4514 7.27369 16 8 16C8.72629 16 9.36216 14.4514 9.71251 12.1347C11.5985 13.5252 13.1432 14.1707 13.6568 13.6571C14.1704 13.1435 13.5249 11.5987 12.1342 9.71258C14.4512 9.36225 16 8.72634 16 8C16 7.2737 14.4514 6.63783 12.1347 6.28748C13.5253 4.40144 14.1707 2.85667 13.6571 2.34308C13.1435 1.82947 11.5987 2.47499 9.71257 3.86567C9.36224 1.54874 8.72633 0 8 0C7.27365 0 6.63774 1.5488 6.28741 3.8658C4.4014 2.47524 2.85667 1.82979 2.34308 2.34338C1.82951 2.85695 2.47489 4.40158 3.86533 6.28748C1.54858 6.63783 0 7.2737 0 8C0 8.72634 1.54878 9.36225 3.86576 9.71258C2.47526 11.5985 1.82985 13.1432 2.34343 13.6568C2.85699 14.1703 4.4016 13.525 6.28747 12.1346Z" fill="currentColor"/>
</svg>
