<svg viewBox="0 0 24 24" fill="none" xmlns="http://www.w3.org/2000/svg">
<path d="M0 0H4C8.41828 0 12 3.58172 12 8V12H8C3.58172 12 0 8.41828 0 4V0Z" fill="#ffffff"/>
<path d="M12 12L12 16C12 20.4183 8.41828 24 4 24L-5.24537e-07 24L-3.49691e-07 20C-1.56562e-07 15.5817 3.58172 12 8 12L12 12Z" fill="#ffffff"/>
<path d="M24 0L24 4C24 8.41828 20.4183 12 16 12L12 12L12 8C12 3.58172 15.5817 -3.67975e-07 20 -1.74846e-07L24 0Z" fill="#ffffff"/>
<path d="M12 12H16C20.4183 12 24 15.5817 24 20V24H20C15.5817 24 12 20.4183 12 16V12Z" fill="#ffffff"/>
</svg>
