<svg viewBox="0 0 24 24" fill="none" xmlns="http://www.w3.org/2000/svg">
<path d="M24 -4.76994e-08C24 6 24 9 24 12L12 12C12 5.37258 17.3726 2.41994e-07 24 -4.76994e-08Z" fill="#ffffff"/>
<path d="M24 24C18 24 15 24 12 24L12 12C18.6274 12 24 17.3726 24 24Z" fill="#ffffff"/>
<path d="M-5.24537e-07 24C-2.62268e-07 18 -1.31134e-07 15 0 12L12 12C12 18.6274 6.62742 24 -5.24537e-07 24Z" fill="#ffffff"/>
<path d="M3.43326e-06 -1.04907e-06C6 -5.24537e-07 9 -2.62268e-07 12 0L12 12C5.37258 12 2.85387e-06 6.62742 3.43326e-06 -1.04907e-06Z" fill="#ffffff"/>
</svg>
